<?xml version="1.0" encoding="UTF-8"?>
<!DOCTYPE svg PUBLIC "-//W3C//DTD SVG 1.1//EN" "http://www.w3.org/Graphics/SVG/1.1/DTD/svg11.dtd">
<!-- Creator: CorelDRAW 2021 (64 Bit) -->
<svg xmlns="http://www.w3.org/2000/svg" xml:space="preserve" width="80mm" height="80mm" version="1.1" style="shape-rendering:geometricPrecision; text-rendering:geometricPrecision; image-rendering:optimizeQuality; fill-rule:evenodd; clip-rule:evenodd"
viewBox="0 0 8000 8000"
 xmlns:xlink="http://www.w3.org/1999/xlink"
 xmlns:xodm="http://www.corel.com/coreldraw/odm/2003">
 <defs>
  <style type="text/css">
   <![CDATA[
    .fil0 {fill:#336699}
    .fil1 {fill:#6699FF}
    .fil4 {fill:#CCCCFF}
    .fil2 {fill:#FF9999}
    .fil3 {fill:#FFCCCC}
    .fil5 {fill:white;fill-rule:nonzero}
   ]]>
  </style>
 </defs>
 <g id="Camada_x0020_1">
  <metadata id="CorelCorpID_0Corel-Layer"/>
  <path class="fil0" d="M2588.26 7237.22c54.82,442.16 1717.7,400.56 2149.09,326.96 154.05,-26.28 401.31,-91.71 522.47,-151.06 198.66,-97.3 146.36,-242.84 145.5,-493.31 -1.55,-450.43 -21.22,-709.09 -244.03,-1032.48 -772.07,-1120.59 -2830.61,-727.85 -2573.03,1349.89z"/>
  <path class="fil1" d="M2272.13 6612.96c30.54,-569.57 291.48,-936.49 561.22,-1210.19 -37.54,-355.98 -339.42,-678.28 -535.19,-814.06 -274.53,-190.41 -624.59,-309.35 -1056.92,-241.29 -672.83,105.94 -1170.66,699.25 -1170.66,1443.41 0,599.07 -56.56,618.88 345.76,750.02 570.24,185.87 1278.55,143.96 1855.79,72.11z"/>
  <path class="fil2" d="M5752.59 6614.9c372.78,80.26 2114.05,165.18 2157.88,-361.79 37.3,-448.49 -1.38,-953.74 -248.66,-1312.98 -756.63,-1099.23 -2374.81,-572.6 -2520.98,479.69 559.77,403.26 515.73,1029.72 611.76,1195.08z"/>
  <path class="fil0" d="M3759.12 3265.34c-1194.28,326.05 -731.86,2120.43 471.94,1814.32 1195.8,-304.08 729.53,-2142.33 -471.94,-1814.32z"/>
  <path class="fil1" d="M1295.85 2314.13c-461.44,102.81 -858.65,552.59 -722.65,1140.54 268.22,1159.65 2071.86,805.84 1830.23,-416.68 -88.33,-446.9 -556.93,-846.56 -1107.58,-723.86z"/>
  <path class="fil2" d="M6291.21 2325.01c-1260.43,324.05 -722.09,2126.63 455.1,1812.6 430.25,-114.78 810.4,-574.66 666.79,-1137.61 -111.38,-436.6 -556.51,-820.34 -1121.89,-674.99z"/>
  <path class="fil3" d="M4970.32 449.99c-1007.16,352.67 -472.89,1804.41 513.71,1473.12 931.04,-312.63 470.36,-1817.7 -513.71,-1473.12z"/>
  <path class="fil4" d="M2493.14 446.84c-944.33,317.27 -534.78,1764.47 461.63,1489.94 352.5,-97.13 663.99,-483.69 532.48,-969.76 -99.12,-366.39 -531.45,-675.62 -994.11,-520.18z"/>
  <path class="fil3" d="M4171.25 2898.05c91.97,76.44 1323.31,252.39 1014.17,1701.5l499.4 -396.22 -145.07 -176.31c-325.96,-361.73 -374.14,-923.78 -157.74,-1358.03 103.82,-208.34 197.23,-256.52 310.19,-405.93 -7.01,-5.84 -18.31,-23.12 -22.02,-16.25l-176.96 -78.88c-545.44,-141.03 -1119.49,128.32 -1321.97,730.12z"/>
  <path class="fil4" d="M2270.41 2238.09c645.13,570.77 615.49,1315.62 32.34,1965.24l501.84 392.5c-89.73,-473.48 -86.33,-767.93 142.86,-1116.3 169.02,-256.92 429.29,-469.36 837.75,-540.32 -153.67,-618.58 -804.97,-982.93 -1514.79,-701.12z"/>
  <path class="fil5" d="M3355.08 7165.47l156.98 48.22c-24.12,88.39 -64.3,153.98 -120.35,196.97 -56.06,42.79 -127.09,64.28 -213.23,64.28 -106.7,0 -194.35,-36.45 -263.12,-109.32 -68.58,-72.88 -102.98,-172.49 -102.98,-299.01 0,-133.61 34.58,-237.51 103.54,-311.52 68.96,-74 159.78,-111 272.28,-111 98.29,0 178.09,29.15 239.38,87.27 36.63,34.38 63.91,83.71 82.23,148.19l-160.34 38.13c-9.53,-41.49 -29.34,-74.39 -59.43,-98.49 -30.28,-24.1 -66.89,-36.07 -109.88,-36.07 -59.61,0 -108.01,21.31 -145.01,64.11 -37.19,42.6 -55.69,111.74 -55.69,207.42 0,101.29 18.31,173.61 54.75,216.6 36.63,43.17 84.09,64.65 142.59,64.65 43.17,0 80.36,-13.64 111.37,-41.11 31.03,-27.48 53.45,-70.45 66.91,-129.32zm1019.41 296.01l-175.1 0 -69.32 -182.76 -322 0 -66.72 182.76 -171.92 0 311.7 -802.82 171.75 0 321.61 802.82zm-297.13 -318.43l-111.56 -297.13 -108.4 297.13 219.96 0zm383.67 -484.39l295.64 0c66.7,0 117.53,5.04 152.48,15.33 46.91,13.83 87.27,38.49 120.72,74.01 33.64,35.32 59.05,78.66 76.63,130.06 17.37,51.2 26.15,114.55 26.15,189.68 0,66.15 -8.22,122.96 -24.66,170.8 -19.99,58.49 -48.58,105.77 -85.77,141.84 -28.04,27.47 -65.98,48.78 -113.63,64.1 -35.69,11.4 -83.35,17 -143.14,17l-304.42 0 0 -802.82zm162.57 135.67l0 531.48 120.54 0c45.04,0 77.55,-2.61 97.55,-7.66 26.35,-6.54 48.03,-17.75 65.22,-33.45 17.37,-15.7 31.4,-41.49 42.23,-77.36 11.03,-35.89 16.45,-85.04 16.45,-147.08 0,-62.05 -5.42,-109.51 -16.45,-142.78 -10.83,-33.25 -26.17,-59.05 -45.78,-77.74 -19.63,-18.5 -44.48,-31.2 -74.76,-37.74 -22.42,-5.04 -66.7,-7.67 -132.48,-7.67l-72.52 0z"/>
 </g>
</svg>
